<?xml version="1.0" encoding="UTF-8"?>
<svg id="Camada_1" xmlns="http://www.w3.org/2000/svg" xmlns:xlink="http://www.w3.org/1999/xlink" version="1.1" viewBox="0 0 3285.9 690.4">
  <!-- Generator: Adobe Illustrator 29.1.0, SVG Export Plug-In . SVG Version: 2.1.0 Build 142)  -->
  <defs>
    <style>
      .st0 {
        fill: none;
      }

      .st1 {
        fill: url(#Gradiente_sem_nome_14);
      }

      .st2 {
        fill: url(#Gradiente_sem_nome_147);
      }

      .st3 {
        fill: url(#Gradiente_sem_nome_148);
      }

      .st4 {
        fill: url(#Gradiente_sem_nome_149);
      }

      .st5 {
        fill: url(#Gradiente_sem_nome_143);
      }

      .st6 {
        fill: url(#Gradiente_sem_nome_144);
      }

      .st7 {
        fill: url(#Gradiente_sem_nome_145);
      }

      .st8 {
        fill: url(#Gradiente_sem_nome_146);
      }

      .st9 {
        fill: url(#Gradiente_sem_nome_141);
      }

      .st10 {
        fill: url(#Gradiente_sem_nome_142);
      }

      .st11 {
        clip-path: url(#clippath-1);
      }

      .st12 {
        fill: #fff;
      }

      .st13 {
        fill: #fcfeff;
      }

      .st14 {
        fill: #e6007e;
      }

      .st15 {
        fill: #1de28f;
      }

      .st16 {
        fill: #6c1c51;
      }

      .st17 {
        fill: url(#Gradiente_sem_nome_1412);
      }

      .st18 {
        fill: url(#Gradiente_sem_nome_1410);
      }

      .st19 {
        fill: url(#Gradiente_sem_nome_1413);
      }

      .st20 {
        fill: url(#Gradiente_sem_nome_1411);
      }

      .st21 {
        clip-path: url(#clippath);
      }
    </style>
    <clipPath id="clippath">
      <path class="st0" d="M237.5,20.6h160.3c118.1,0,213.8,95.7,213.8,213.8v160.3c0,118.1-95.7,213.8-213.8,213.8h-160.3c-117.9,0-213.8-95.7-213.8-213.8v-160.3C23.7,116.3,119.6,20.6,237.5,20.6Z"/>
    </clipPath>
    <clipPath id="clippath-1">
      <rect class="st0" x="-384.2" y="-133.8" width="997.7" height="831.5"/>
    </clipPath>
    <linearGradient id="Gradiente_sem_nome_14" data-name="Gradiente sem nome 14" x1="613.5" y1="130.2" x2="114.6" y2="961.6" gradientTransform="translate(0 -264)" gradientUnits="userSpaceOnUse">
      <stop offset="0" stop-color="#f66"/>
      <stop offset="1" stop-color="#a2227e"/>
    </linearGradient>
    <linearGradient id="Gradiente_sem_nome_141" data-name="Gradiente sem nome 14" x1="114.6" y1="130.2" x2="114.6" y2="961.6" xlink:href="#Gradiente_sem_nome_14"/>
    <linearGradient id="Gradiente_sem_nome_142" data-name="Gradiente sem nome 14" x1="607.4" y1="334.5" x2="235.2" y2="961.7" xlink:href="#Gradiente_sem_nome_14"/>
    <linearGradient id="Gradiente_sem_nome_143" data-name="Gradiente sem nome 14" x1="235.2" y1="338.1" x2="235.2" y2="961.6" xlink:href="#Gradiente_sem_nome_14"/>
    <linearGradient id="Gradiente_sem_nome_144" data-name="Gradiente sem nome 14" x1="607.4" y1="542.4" x2="359.9" y2="961.7" xlink:href="#Gradiente_sem_nome_14"/>
    <linearGradient id="Gradiente_sem_nome_145" data-name="Gradiente sem nome 14" x1="359.9" y1="546" x2="359.9" y2="961.6" xlink:href="#Gradiente_sem_nome_14"/>
    <linearGradient id="Gradiente_sem_nome_146" data-name="Gradiente sem nome 14" x1="619.6" y1="757.6" x2="493" y2="961.6" xlink:href="#Gradiente_sem_nome_14"/>
    <linearGradient id="Gradiente_sem_nome_147" data-name="Gradiente sem nome 14" x1="492.9" y1="753.7" x2="492.9" y2="961.6" xlink:href="#Gradiente_sem_nome_14"/>
    <linearGradient id="Gradiente_sem_nome_148" data-name="Gradiente sem nome 14" x1="-384.3" y1="130.2" x2="114.6" y2="961.6" xlink:href="#Gradiente_sem_nome_14"/>
    <linearGradient id="Gradiente_sem_nome_149" data-name="Gradiente sem nome 14" x1="114.6" y1="130.2" x2="114.6" y2="961.6" xlink:href="#Gradiente_sem_nome_14"/>
    <linearGradient id="Gradiente_sem_nome_1410" data-name="Gradiente sem nome 14" x1="-384.2" y1="338.1" x2="-10.1" y2="961.6" xlink:href="#Gradiente_sem_nome_14"/>
    <linearGradient id="Gradiente_sem_nome_1411" data-name="Gradiente sem nome 14" x1="-10.1" y1="338.1" x2="-10.1" y2="961.6" xlink:href="#Gradiente_sem_nome_14"/>
    <linearGradient id="Gradiente_sem_nome_1412" data-name="Gradiente sem nome 14" x1="-384.2" y1="546" x2="-134.8" y2="961.7" xlink:href="#Gradiente_sem_nome_14"/>
    <linearGradient id="Gradiente_sem_nome_1413" data-name="Gradiente sem nome 14" x1="-134.8" y1="546" x2="-134.8" y2="961.6" xlink:href="#Gradiente_sem_nome_14"/>
  </defs>
  <g>
    <g>
      <path class="st12" d="M1382.4,514.7c-35.3,0-65.7-8.7-91.3-26.1-25.6-17.4-45.3-40.7-59.1-70-13.8-29.2-20.7-61.5-20.7-96.8s7.9-69.7,23.6-99c15.7-29.2,38.2-52.4,67.4-69.6,29.2-17.2,64.2-25.7,104.8-25.7s74.3,8.6,102.6,25.7c28.3,17.2,50,40.4,65.3,69.6,15.2,29.2,22.8,61.8,22.8,97.5v185.6h-83.4v-68.9h-1.4c-7.3,13.5-16.7,26.2-28.3,38.1-11.6,11.8-25.9,21.4-42.8,28.6-16.9,7.2-36.7,10.9-59.4,10.9ZM1404.9,443.6c21.8,0,40.7-5.4,56.9-16.3,16.2-10.9,28.8-25.6,37.7-44.2,8.9-18.6,13.4-39.5,13.4-62.7s-4.4-43.9-13.1-62c-8.7-18.1-21-32.6-37-43.5-16-10.9-35-16.3-57.3-16.3s-43,5.4-59.4,16.3c-16.4,10.9-29,25.5-37.7,43.9-8.7,18.4-13,39.1-13,62.3s4.3,43.4,13,62c8.7,18.6,21.1,33.3,37.3,44.2,16.2,10.9,35.9,16.3,59.1,16.3Z"/>
      <path class="st12" d="M1887,127.6c30,0,56.8,4.7,80.5,14.1,23.7,9.4,43.9,23.1,60.5,41,16.7,17.9,29.5,39,38.4,63.4,8.9,24.4,13.4,51.4,13.4,80.8s-7.6,70-22.8,98.2c-15.2,28.3-36.3,50.3-63.1,66-26.8,15.7-57.9,23.6-93.2,23.6s-33.8-2.7-49.3-8c-15.5-5.3-29.5-12.8-42-22.5-12.6-9.7-22.7-21-30.4-34.1h-.7v215.3h-83.4v-340c0-41.1,8.1-76.4,24.3-105.8,16.2-29.5,38.8-52.2,67.8-68.1,29-15.9,62.3-23.9,100-23.9ZM1887,198.6c-20.8,0-39.4,5.2-55.8,15.6-16.4,10.4-29.2,24.8-38.4,43.1-9.2,18.4-13.8,39.6-13.8,63.8s4.6,44.8,13.8,63.4c9.2,18.6,22,33.1,38.4,43.5,16.4,10.4,35.3,15.6,56.5,15.6s40-5.3,56.2-16c16.2-10.6,28.9-25.1,38.1-43.5,9.2-18.4,13.8-39.4,13.8-63.1s-4.6-45.4-13.8-63.8c-9.2-18.4-22-32.7-38.4-43.1-16.4-10.4-35.3-15.6-56.5-15.6Z"/>
    </g>
    <g class="st21">
      <g>
        <path class="st15" d="M237.5,20.6h160.3c118.1,0,213.8,95.7,213.8,213.8v160.3c0,118.1-95.7,213.8-213.8,213.8h-160.3c-117.9,0-213.8-95.7-213.8-213.8v-160.3C23.7,116.3,119.6,20.6,237.5,20.6Z"/>
        <rect class="st16" x="-2379.7" y="-1796.6" width="4988.5" height="4988.5"/>
        <g class="st11">
          <g>
            <path class="st1" d="M-384.2,697.6L613.5-133.8v831.5H-384.2Z"/>
            <path class="st9" d="M-384.2,697.6L613.5-133.8v831.5H-384.2Z"/>
            <path class="st10" d="M-143,697.6L613.5,74.1v623.6H-143Z"/>
            <path class="st5" d="M-143,697.6L613.5,74.1v623.6H-143Z"/>
            <path class="st6" d="M106.4,697.6l507-415.7v415.7H106.4Z"/>
            <path class="st7" d="M106.4,697.6l507-415.7v415.7H106.4Z"/>
            <path class="st8" d="M372.4,697.6l241.1-207.9v207.9h-241.1Z"/>
            <path class="st2" d="M372.4,697.6l241.1-207.9v207.9h-241.1Z"/>
            <path class="st3" d="M613.5,697.6L-384.2-133.8v831.5h997.7Z"/>
            <path class="st4" d="M613.5,697.6L-384.2-133.8v831.5h997.7Z"/>
            <path class="st18" d="M364,697.6L-384.2,74.1v623.6H364Z"/>
            <path class="st20" d="M364,697.6L-384.2,74.1v623.6H364Z"/>
            <path class="st17" d="M114.6,697.6l-498.9-415.7v415.7H114.6Z"/>
            <path class="st19" d="M114.6,697.6l-498.9-415.7v415.7H114.6Z"/>
          </g>
        </g>
        <g>
          <path class="st13" d="M408.1,213h-167.1c-19.2,0-34.8,15.6-34.8,34.8v167c-34.4,0-63-25-68.5-57.9-.7-3.8-1-7.7-1-11.7v-132.3c0-38.4,31.1-69.5,69.5-69.5h132.3c4,0,7.9.3,11.7,1,32.8,5.5,57.9,34.1,57.9,68.5Z"/>
          <path class="st13" d="M470.4,507.4h-221.2c-62.1,0-112.5-50.4-112.5-112.5v-26.5c0,4,.3,7.9,1,11.7,5.5,32.8,34.1,57.9,68.5,57.9h167.1c17.5.3,33.5,7.1,45.6,18l.6.6c1.1,1,2.2,2.1,3.2,3.2l47.7,47.7Z"/>
          <path class="st13" d="M500.8,255.9v221.1l-51.8-51.8c-11-12.3-17.7-28.5-17.7-46.3v-166c0-34.4-25-63-57.9-68.5-3.8-.7-7.7-1-11.7-1h26.6c62.1,0,112.5,50.3,112.5,112.5Z"/>
        </g>
      </g>
    </g>
    <path class="st12" d="M1125.1,222.2c-17.1-29.1-40.3-52.2-69.7-69.3-29.4-17.1-62.8-25.6-100.4-25.6s-71.7,8.6-101.1,25.6c-29.4,17.1-52.6,40.2-69.7,69.3-17.1,29.1-25.6,61.7-25.6,97.8s8.5,68.7,25.6,97.8c17.1,29.1,40.3,52.2,69.7,69.3,18.3,10.7,38.4,18,60.1,22v59.4h81.3v-59.3c21.6-4,41.7-11.3,60.1-22.1,29.4-17.1,52.6-40.2,69.7-69.3,17.1-29.1,25.6-61.7,25.6-97.8s-8.6-68.7-25.6-97.8ZM1053.2,382.1c-9.1,18.3-22.1,32.9-39,43.7-16.9,10.8-36.6,16.2-59.2,16.2s-43-5.4-59.6-16.2c-16.6-10.8-29.6-25.5-39-44-9.4-18.5-14.1-39.1-14.1-61.7s4.7-43.8,14.1-62.1c9.4-18.3,22.4-32.8,39-43.7,16.6-10.8,36.5-16.2,59.6-16.2s42.4,5.4,59.2,16.2c16.8,10.8,29.8,25.5,39,44,9.1,18.5,13.7,39.1,13.7,61.7s-4.6,43.8-13.7,62.1Z"/>
  </g>
  <path class="st12" d="M2329.7,505.2c-16.5,16.5-37.9,24.4-59.2,24.4-45.8,0-83.6-31.6-83.6-82.9s36.5-82.9,83.6-82.9,42.8,8.2,59.2,24.4l-10.5,10.2c-13.2-13.2-31.3-19.4-48.7-19.4-36.9,0-67.8,24-67.8,67.8s30.9,67.8,67.8,67.8,35.2-6.9,48.4-20.1l10.9,10.9Z"/>
  <path class="st12" d="M2578.7,365.3v29c12.5-22.4,35.2-31.6,57.9-31.9,43.4,0,73.4,26.7,73.4,71.8v93.8h-16.1v-93.5c0-36.9-22.7-56.6-57.9-56.3-33.6.3-56.9,25.7-56.9,59.3v90.5h-16.1v-162.6h15.8Z"/>
  <path class="st12" d="M2726.5,365.3h17.8l59.3,143.8,59.2-143.8h17.8l-68.1,162.6h-17.8l-68.1-162.6Z"/>
  <path class="st12" d="M3219,394.9c-16.4-14.5-32.6-17.1-50.7-17.1-25.4-.3-49.7,9.2-49,30,.7,21.7,29,26,49.4,29.6,29,4.9,68.8,9.9,67.2,47.7-1,35.9-38.2,45.4-66.8,45.4s-56.9-10.9-71.1-32.6l11.8-10.5c13.5,19.4,37.9,27.6,59.6,27.6s49.7-5.3,50.7-30.9c.6-23.4-26.3-28-53-32.3-31.6-5.3-62.9-11.2-63.2-43.8-.3-31.9,31.6-45.8,64.5-45.4,23.7,0,44.4,6.6,60.6,21.7l-9.9,10.5Z"/>
  <path class="st12" d="M2519.9,446.6c0-.2,0-.4,0-.6v-2.1h-.2c-1.5-44.7-38.1-80.7-83.2-80.7s-83.5,37.5-83.5,83.5,37.5,83.5,83.5,83.5,52.7-14,67.8-35.2v32.9h15.6v-80.6c0-.2,0-.4,0-.6ZM2436.4,514.5c-37.4,0-67.9-30.5-67.9-67.9s30.5-67.9,67.9-67.9,67.5,30.1,67.8,67.3v1.3c-.4,37.1-30.6,67.3-67.8,67.3Z"/>
  <path class="st12" d="M3065.2,446.6c0-.2,0-.3,0-.5v-2.3h-.2c-1.5-44.7-38.1-80.7-83.2-80.7s-83.5,37.5-83.5,83.5,37.5,83.5,83.5,83.5,52.7-14,67.8-35.2v32.9h15.6v-80.8c0-.2,0-.3,0-.5ZM2981.7,514.5c-37.4,0-67.9-30.5-67.9-67.9s30.5-67.9,67.9-67.9,67.6,30.2,67.8,67.4v1c-.3,37.2-30.6,67.4-67.8,67.4Z"/>
  <circle class="st14" cx="2121.2" cy="493" r="29.5"/>
</svg>